<?xml version="1.0" encoding="utf-8"?>
<!-- Generator: Adobe Illustrator 19.0.0, SVG Export Plug-In . SVG Version: 6.00 Build 0)  -->
<!DOCTYPE svg PUBLIC "-//W3C//DTD SVG 1.1//EN" "http://www.w3.org/Graphics/SVG/1.1/DTD/svg11.dtd">
<svg version="1.1" id="Layer_1" xmlns="http://www.w3.org/2000/svg" xmlns:xlink="http://www.w3.org/1999/xlink" x="0px" y="0px"
	 viewBox="-154 155.1 111 111" style="enable-background:new -154 155.1 111 111;" xml:space="preserve">
<g>
	<g>
		<path d="M-49.7,221.9L-49.7,221.9c4.7-6.2,7.3-13.4,7.2-21c-0.4-22-23.7-39.4-51.9-38.8c-28.3,0.6-50.8,18.8-50.4,40.8
			c0,0.4,0,0.8,0,1.2l1.4-0.9c0-0.1,7.5-4,7.5-4.1c0-16,23.2-31.4,41.5-31.4c16.5,0,44.7,9.5,44.7,33.2c0,7.2-4.1,14.4-8.6,20.1
			c-3.7,5.8,0.7,18.8,0.7,18.8l-14.6-7.8c-3.8,1.2-9.8,1.8-11.4,2.2c-2,4.6-5,7.2-5,7.2c5.2-0.4,9.1-1.2,13.7-2.7l25.9,11.1
			C-48.9,250-57.7,232.2-49.7,221.9z M-118.5,198c-19-0.4-34.7,11.3-35,26.1c-0.1,5.1,1.7,10,4.8,14.1h0c5.4,6.9-0.5,18.9-0.5,18.9
			l17.4-7.5c3.8,1.2,7.8,1.9,12.1,2c19,0.4,34.7-11.3,35-26.1C-84.4,210.7-99.5,198.4-118.5,198z"/>
	</g>
</g>
</svg>
