<?xml version="1.0" encoding="utf-8"?>
<!-- Generator: Adobe Illustrator 19.0.0, SVG Export Plug-In . SVG Version: 6.00 Build 0)  -->
<!DOCTYPE svg PUBLIC "-//W3C//DTD SVG 1.1//EN" "http://www.w3.org/Graphics/SVG/1.1/DTD/svg11.dtd">
<svg version="1.1" id="Layer_1" xmlns="http://www.w3.org/2000/svg" xmlns:xlink="http://www.w3.org/1999/xlink" x="0px" y="0px"
	 viewBox="-159 160.5 100 100" style="enable-background:new -159 160.5 100 100;" xml:space="preserve">
<g>
	<path d="M-109,160.5c-27.6,0-50,22.4-50,50c0,27.6,22.4,50,50,50c27.6,0,50-22.4,50-50C-59,182.9-81.4,160.5-109,160.5z
		 M-151,210.5c0-8.9,2.8-17.2,7.6-24c0,4,1.5,9,6.3,14.8c5.6,6.7,11.5,9.5,20.8,15.1c9.3,5.6,7.8,8.1,5.6,10.7
		c-2.2,2.5-7.6,11.8,0.8,16.8c6.5,3.9,7.6,4.2,6.5,7.6c-0.1,0.2-0.2,0.4-0.3,0.6c-1.8,0.2-3.5,0.4-5.4,0.4
		C-132.2,252.4-150.9,233.7-151,210.5z M-90.3,248c1.9-2.8,3.9-6.5,5.7-11.4c3.9-10.9,5.9-25.2-1.7-23.5c-6.7,1.5-14.9,3.1-18.8,3.6
		c-3.9,0.6-8.7-3.4-14-6.2c-5.3-2.8-8.4-7.6-4.2-10.7c4.2-3.1,12.6,7.6,15.4,4.2c2.8-3.4,0.8-6.5,4.5-13.7c3.6-7.3,4-6,6.7-12.1
		c1.4-3.1,1.1-5.7,0.2-7.8c17,5.4,29.3,21.2,29.4,40C-67.1,227-76.6,241.1-90.3,248z"/>
</g>
</svg>
