<svg xmlns="http://www.w3.org/2000/svg" viewBox="-159 148 100 100"><path d="M-77.1 192.2c1.3-2.2 2-4.8 2-7.5 0-8.3-6.7-15-15-15h-.6c.4-1.4.6-2.9.6-4.4 0-9.6-7.8-17.4-17.4-17.4-6.3 0-11.8 3.4-14.9 8.4-.6-.1-1.1-.1-1.7-.1-8.1 0-14.7 6.6-14.7 14.7 0 2 .4 3.9 1.1 5.7-7.1 5.2-11.6 13.6-11.6 23 0 14.8 11.3 27 25.8 28.4l-3.8-3.7c-2.7-2.7-2.8-7-.2-9.5 1.3-1.2 2.9-1.9 4.7-1.9 1.8 0 3.5.7 4.8 2l9.7 9.8 11.6-11.6c1.3-1.3 3-2 4.8-2 1.8 0 3.4.7 4.7 1.9 1.3 1.3 2 3.1 1.9 4.9-.1 1.7-.8 3.3-2.1 4.6l-7.3 7.2c1.6.4 3.2.6 4.8.6 11.8 0 21.3-9.5 21.3-21.3-.1-6.7-3.4-12.9-8.5-16.8z"/><path d="M-89.8 215.6c-1.3-1.3-3.4-1.2-4.7.1l-13.2 13.3h-1.6l-11.3-11.6c-1.3-1.3-3.4-1.4-4.7-.1-1.3 1.3-.8 3.3.5 4.6l11.6 11.2V248h9v-14.5l13.7-13.2c1.5-1.3 2-3.4.7-4.7z"/></svg>