<svg xmlns="http://www.w3.org/2000/svg" viewBox="-164.5 154.2 92 92"><path d="M-86 215.2c.3 13.9-11.3 26.5-26.3 28.8-15.2 2.3-29.7-5.2-35.1-18.1-3-7.2-2.6-14.4-.2-21.7 3.2-9.6 8.2-18.3 13.7-26.8 4.7-7.1 9.9-13.9 15.4-20.6.6-.8 1-.6 1.5 0 3 3.5 5.8 7.1 8.5 10.8 6.8 9.1 13 18.6 17.6 28.8 2.3 5 4.1 10.2 4.8 15.7-.1 1 0 2.1.1 3.1zm-46.4-23.5c-.3.4-.4.5-.5.6-2.8 5.2-5.4 10.5-6.9 16.3-1.8 6.6-1.6 12.6 2.3 18.4 1.5 2.2 3.9 4 7.2 4.5 2.3.4 4.5-.7 5.7-2.3 1.2-1.8.7-3.4-.5-5-.8-1.1-1.7-2.2-2.5-3.3-3.9-5.4-6-11.3-6.2-17.8-.1-3.8.5-7.5 1.4-11.4z"/></svg>