<?xml version="1.0" encoding="utf-8"?>
<!-- Generator: Adobe Illustrator 19.0.0, SVG Export Plug-In . SVG Version: 6.00 Build 0)  -->
<!DOCTYPE svg PUBLIC "-//W3C//DTD SVG 1.1//EN" "http://www.w3.org/Graphics/SVG/1.1/DTD/svg11.dtd">
<svg version="1.1" id="Layer_1" xmlns="http://www.w3.org/2000/svg" xmlns:xlink="http://www.w3.org/1999/xlink" x="0px" y="0px"
	 viewBox="-159 161 100 100" style="enable-background:new -159 161 100 100;" xml:space="preserve">
<style type="text/css">
	.st0{fill:#010101;}
</style>
<path class="st0" d="M-59,215.7c0-10.4-7.6-19.1-17.6-20.7c0.4-0.8,0.6-1.8,0.6-2.8c0-3.9-3.2-7-7.1-7c-1.8,0-3.4,0.7-4.6,1.8
	c-0.9-8.9-8.4-15.9-17.5-15.9c-7.5,0-14,4.7-16.5,11.4c-4,1.7-7.5,4.3-10.4,7.5c-2.8-2-6.2-3.1-9.8-3.1c-9.4,0-17,7.6-17,17
	c0,5.1,2.2,9.6,5.7,12.7c-2.7,1.7-4.5,4.8-4.5,8.2c0,5.4,4.4,9.7,9.7,9.7c1.4,0,2.7-0.3,3.9-0.8c3.1,7.3,10.4,12.4,18.9,12.4
	c6.6,0,12.4-3.1,16.2-7.9c0.5,0,1-0.1,1.5-0.1c2.4,5.7,8.1,9.7,14.7,9.7c7.2,0,13.3-4.8,15.3-11.3C-67.1,235.3-59,226.4-59,215.7z"
	/>
</svg>
