<?xml version="1.0" encoding="utf-8"?>
<!-- Generator: Adobe Illustrator 19.0.0, SVG Export Plug-In . SVG Version: 6.00 Build 0)  -->
<!DOCTYPE svg PUBLIC "-//W3C//DTD SVG 1.1//EN" "http://www.w3.org/Graphics/SVG/1.1/DTD/svg11.dtd">
<svg version="1.1" id="Layer_1" xmlns:sketch="http://www.bohemiancoding.com/sketch/ns"
	 xmlns="http://www.w3.org/2000/svg" xmlns:xlink="http://www.w3.org/1999/xlink" x="0px" y="0px" viewBox="-188 189.6 42 42"
	 style="enable-background:new -188 189.6 42 42;" xml:space="preserve">
<title>thunder</title>
<description>Created with Sketch (http://www.bohemiancoding.com/sketch)</description>
<g sketch:type="MSPage">
	<path sketch:type="MSShapeGroup" d="M-180.2,219.2h-1.3v-0.1c-3.7-0.6-6.5-3.9-6.5-7.8c0-3.1,1.8-5.8,4.4-7.1
		c-0.3-0.7-0.4-1.4-0.4-2.1c0-2.9,2.3-5.3,5.2-5.3c1.5,0,2.9,0.7,3.9,1.7c2-4.1,6.3-7,11.2-7c6.8,0,12.3,5.5,12.4,12.3
		c3,1.1,5.2,4,5.2,7.4c0,3.9-2.8,7.2-6.5,7.8v0.1h-1.3h-1.7v-2.5h1.4h0.4l0.4-0.1c2.5-0.4,4.9-3.4,4.9-5.9c0-2.2-1.5-4.2-3.6-4.9
		l-1.7-0.6l0-1.8c-0.1-5.2-4.9-9.4-10.2-9.4c-3.7,0-7.1,2.1-8.7,5.4l-1.7,3.4l-2.6-2.8c-0.5-0.5-1.2-0.8-1.9-0.8
		c-1.4,0-2.6,1.2-2.6,2.6c0,0.4,0.1,0.7,0.2,1l1,2.2l-2.2,1.1c-1.8,0.9-2.9,2.6-2.9,4.6c0,2.5,1.8,5.5,4.3,5.9l0.4,0.1h0.4h1.5v2.5
		H-180.2z M-168.2,218.5l-4.7-2.1l8.7-13.1l-2.6,11.7l5.4,2.2l-10.8,11.9L-168.2,218.5z"/>
</g>
</svg>
