<svg xmlns="http://www.w3.org/2000/svg" viewBox="-159 144.8 100 100"><path d="M-67.1 192.2c2.3 3.7 4.8 6.9 5.2 11.3.6 6.2.4 12.3-1.2 18.3-.6 2.1-1.1 4.9-3.7 5.1-3 .2-3.6-2.8-4.2-5-2.3-8.1-2.4-16.3-.1-24.5.5-1.9 1.1-4 4-5.2zM-81.4 206.5c2.1 2.6 1.7 4.7 1.3 6.7-2 8.3-5.9 15.7-11.9 21.9-1.5 1.6-3.4 3.7-5.7 2.5-2.4-1.2-1.6-4-1.1-6.1 1.5-7 4.5-13.3 9-18.7 2.1-2.6 5.4-4.2 8.4-6.3zM-126.7 153.5c.8 5.1 1.9 9.9-.2 14.6-1.6 3.4-3 6.9-4.8 10.2-.9 1.7-2.2 3.3-3.5 4.7-1.2 1.3-2.7 2.9-4.6 2-1.9-.9-2-3-1.9-4.8.8-9.3 3.9-17.7 10.1-24.8 1.3-1.5 1.4-1.4 4.9-1.9zM-94.7 170.4c4.4-.5 8.4-2.3 12.9-1 5.4 1.6 10.7 3.3 15.5 6.4 1.6 1.1 3.1 2.5 4.3 4 1.2 1.5.6 3-1.2 3.7-1.2.4-2.5.6-3.7.6-8.9-.2-17-3.1-24.4-8.1-1.6-1.2-3.1-2.5-3.4-5.6zM-119.9 178.2c2.5 1.4 2.8 3.4 2.9 5.3.4 9-1.6 17.5-6.2 25.2-1 1.8-2.3 4-4.7 3.3-2.4-.7-2.3-3.2-2.4-5.3-.4-6.8 1-13.3 3.3-19.7 1.4-3.7 4.7-5.9 7.1-8.8zM-103 223.2c-3 3.1-5.5 6.1-9.3 7.4-6 2.1-12.1 3.3-18.5 3-1.5-.1-3.1-.4-4.5-1-2.1-.9-2.5-2.6-.9-4.3 1-1.1 2.3-2.1 3.6-2.8 6.9-3.6 14.4-5.3 22.2-5.2 2.6.1 5.1.4 7.4 2.9zM-154.6 187.1c4 2.6 7.6 5.2 9.4 9.9 2 5.2 4 10.5 4.3 16.1.1 2.4.8 5.6-2.1 6.6-2.6.8-4.2-1.9-5.5-3.8-4.7-7-7.6-14.6-8-23.1-.1-1.8-.4-3.9 1.9-5.7zM-107.1 150c2.4 3.5 5.1 6.9 5.5 11.5.5 6 .7 12-1 17.9-.6 2.2-1 5.3-4 5.2-2.6-.1-3.2-2.9-3.9-4.9-2.5-8.2-2.8-16.5-.5-24.8.6-2.1 1.2-4.2 3.9-4.9zM-80.7 193c.4 3.1-1.1 4.3-2.5 5.3-7.7 5.5-16.3 8.5-25.8 8.6-.6 0-1.1-.1-1.7-.2-3.1-.6-3.9-2.6-1.7-5 .9-1 2-1.9 3.2-2.7 5.6-3.7 11.7-6.1 18.2-7.1 3.3-.4 6.8.7 10.3 1.1z"/></svg>