<svg xmlns="http://www.w3.org/2000/svg" viewBox="-173 173.2 72 72"><path d="M-135.7 177.4h-4.7c-.5 0-1-.3-1.3-.7-1.1-1.8-3-2.9-5.2-2.9s-4.2 1.2-5.2 2.9c-.3.5-.8.7-1.3.7h-4.7c-2.6 0-4.9 2-5.1 4.6-.2 2.9 2.1 5.2 4.9 5.2h22.8c2.8 0 5.1-2.4 4.9-5.2-.2-2.6-2.5-4.6-5.1-4.6zM-104.4 201.3c.2.2.4.2.6 0l1.9-1.9c.5-.5.5-1.2.1-1.6l-6.8-6.8c-.4-.4-1.1-.4-1.6.1l-1.9 1.9c-.2.2-.2.4 0 .6l7.7 7.7z"/><path d="M-126.1 229.3c-.5.5-1.1.9-1.7 1.1l-11.8 4.9c-.6.3-1.3.4-2 .4-1.3 0-2.6-.5-3.5-1.4-1.4-1.4-1.8-3.6-1-5.5l5-11.8c.3-.6.7-1.2 1.1-1.7l18.4-18.4c.2-.2.4-.6.4-.9v-12.3c0-.4-.4-.8-.8-.8h-4.8c-.4 0-.7.3-.8.7-.3 1.5-.9 3-2 4.1-1.5 1.6-3.6 2.5-5.8 2.5h-22.9c-2.2 0-4.3-.9-5.8-2.5-1.1-1.1-1.8-2.6-2-4.1-.1-.4-.5-.7-.8-.7h-4.8c-.4 0-.8.4-.8.8v60.2c0 .4.4.8.8.8h49.6c.4 0 .8-.4.8-.8v-16.2c0-1.2-1.4-1.8-2.3-.9l-2.5 2.5z"/><path d="M-114.4 195.2l-22.9 22.9c-.1.1-.2.3-.3.4l-4.9 11.8c-.2.4-.1.9.2 1.1.3.3.7.4 1.1.2l11.8-4.9c.2-.1.3-.2.4-.3l22.9-22.9c.2-.2.2-.4 0-.6l-7.7-7.7c-.2-.1-.4-.1-.6 0zm-17 30.1l-6.8 2.8c-.5.2-1-.2-.8-.8l2.8-6.8c.2-.4.7-.6 1.1-.3l3.9 3.9c.4.4.2 1-.2 1.2z"/></svg>